<?xml version="1.0" encoding="utf-8"?>
<!-- Generator: Adobe Illustrator 23.0.1, SVG Export Plug-In . SVG Version: 6.00 Build 0)  -->
<svg version="1.1" id="Layer_1" xmlns="http://www.w3.org/2000/svg" xmlns:xlink="http://www.w3.org/1999/xlink" x="0px" y="0px"
	 viewBox="0 0 946 249" style="enable-background:new 0 0 946 249;" xml:space="preserve">
<style type="text/css">
	.st0{fill:#424243;}
</style>
<g>
	<path class="st0" d="M440.12,181.57h-1.25c-0.33,0-0.58,0.17-0.74,0.48l-4.4,8.16l-4.37-8.16c-0.16-0.32-0.42-0.49-0.74-0.49h-1.25
		c-0.17,0-0.33,0.06-0.46,0.2c-0.13,0.13-0.19,0.27-0.19,0.43v12.49c0,0.21,0.06,0.38,0.19,0.51c0.13,0.13,0.3,0.19,0.51,0.19h1.17
		c0.21,0,0.38-0.06,0.51-0.19c0.13-0.13,0.19-0.3,0.19-0.51v-8.06l3.15,5.83c0.13,0.26,0.25,0.44,0.38,0.57
		c0.13,0.14,0.34,0.21,0.6,0.21h0.65c0.26,0,0.46-0.07,0.6-0.21c0.13-0.13,0.25-0.32,0.37-0.56l3.15-5.98v8.21
		c0,0.21,0.07,0.38,0.19,0.51c0.13,0.13,0.3,0.19,0.51,0.19h1.17c0.21,0,0.38-0.06,0.51-0.19c0.13-0.13,0.19-0.3,0.19-0.51v-12.49
		c0-0.16-0.07-0.3-0.19-0.43C440.45,181.63,440.3,181.57,440.12,181.57z"/>
	<path class="st0" d="M461.43,181.31c-1.14,0-2.12,0.2-2.92,0.6c-0.8,0.4-1.4,0.88-1.78,1.42c-0.39,0.55-0.58,1.04-0.58,1.47
		c0,0.19,0.07,0.36,0.2,0.49c0.14,0.14,0.31,0.21,0.5,0.21h1.02c0.17,0,0.3-0.04,0.41-0.12c0.1-0.08,0.19-0.21,0.26-0.39
		c0.22-0.41,0.56-0.78,1.03-1.09c0.46-0.31,1.09-0.46,1.86-0.46c2,0,2.97,0.84,2.97,2.56v0.64l-3.8,0.53
		c-1.63,0.25-2.94,0.74-3.9,1.49c-0.96,0.75-1.45,1.74-1.45,2.92c0,0.75,0.22,1.45,0.66,2.07c0.44,0.61,1.03,1.11,1.77,1.46
		c0.73,0.35,1.55,0.53,2.41,0.53c1.16,0,2.13-0.2,2.88-0.59c0.61-0.32,1.1-0.71,1.48-1.16v0.75c0,0.21,0.07,0.38,0.19,0.52
		c0.13,0.14,0.3,0.21,0.51,0.21h1.15c0.21,0,0.39-0.07,0.52-0.21c0.14-0.14,0.2-0.31,0.2-0.52v-8.48c0-1.38-0.43-2.55-1.29-3.48
		C464.84,181.78,463.4,181.31,461.43,181.31z M464.37,189.24c0,1.38-0.36,2.45-1.06,3.17c-0.7,0.72-1.62,1.08-2.73,1.08
		c-0.77,0-1.44-0.18-2-0.55c-0.55-0.36-0.82-0.86-0.82-1.53c0-0.58,0.3-1.06,0.91-1.46c0.63-0.4,1.57-0.7,2.79-0.87l2.9-0.42V189.24
		z"/>
	<path class="st0" d="M493.68,181.57h-1.15c-0.21,0-0.38,0.07-0.52,0.21c-0.14,0.14-0.21,0.31-0.21,0.52v4.9h-6.94v-4.9
		c0-0.21-0.07-0.38-0.21-0.52c-0.14-0.14-0.31-0.21-0.53-0.21H483c-0.21,0-0.39,0.07-0.52,0.21c-0.14,0.14-0.21,0.31-0.21,0.52
		v12.36c0,0.21,0.07,0.38,0.21,0.52c0.14,0.14,0.31,0.21,0.53,0.21h1.14c0.21,0,0.39-0.07,0.52-0.21c0.14-0.14,0.21-0.31,0.21-0.52
		v-5.19h6.94v5.19c0,0.21,0.07,0.38,0.21,0.52c0.14,0.14,0.31,0.21,0.52,0.21h1.15c0.21,0,0.38-0.07,0.52-0.21
		c0.13-0.14,0.21-0.31,0.21-0.52V182.3c0-0.22-0.07-0.41-0.2-0.53C494.09,181.63,493.91,181.57,493.68,181.57z"/>
	<path class="st0" d="M521.37,181.57h-1.09c-0.3,0-0.57,0.15-0.78,0.44l-7.07,9.44v-9.15c0-0.21-0.07-0.38-0.21-0.52
		c-0.14-0.13-0.31-0.21-0.53-0.21h-1.15c-0.21,0-0.39,0.07-0.52,0.21c-0.14,0.14-0.21,0.31-0.21,0.52v12.41
		c0,0.17,0.07,0.33,0.21,0.47c0.14,0.14,0.3,0.21,0.47,0.21h1.12c0.3,0,0.57-0.15,0.79-0.44l7.07-9.44v9.15
		c0,0.21,0.07,0.38,0.21,0.52c0.14,0.14,0.31,0.21,0.52,0.21h1.15c0.21,0,0.38-0.07,0.52-0.21c0.14-0.14,0.21-0.31,0.21-0.52v-12.44
		c0-0.18-0.08-0.33-0.23-0.46C521.7,181.63,521.54,181.57,521.37,181.57z"/>
	<path class="st0" d="M544.45,188.19l3.86-5.69l0.01-0.04c0.02-0.04,0.04-0.09,0.07-0.14c0.05-0.08,0.07-0.15,0.07-0.21
		c0-0.16-0.07-0.3-0.21-0.4c-0.13-0.09-0.28-0.14-0.46-0.14h-1.28c-0.32,0-0.59,0.15-0.78,0.45l-3.53,5.19h-2.23v-4.9
		c0-0.22-0.06-0.41-0.2-0.53c-0.13-0.13-0.31-0.2-0.53-0.2h-1.12c-0.21,0-0.39,0.07-0.52,0.21c-0.14,0.14-0.21,0.31-0.21,0.52v12.36
		c0,0.21,0.07,0.39,0.21,0.52c0.14,0.14,0.31,0.21,0.53,0.21h1.12c0.21,0,0.38-0.07,0.52-0.21c0.14-0.13,0.21-0.31,0.21-0.52v-5.14
		h2.28l3.8,5.43c0.23,0.29,0.51,0.44,0.81,0.44h1.49c0.54,0,0.62-0.34,0.62-0.55c0-0.12-0.04-0.26-0.13-0.41L544.45,188.19z"/>
	<path class="st0" d="M578.87,182.96c-1.07-1.1-2.58-1.65-4.49-1.65c-1.91,0-3.42,0.56-4.49,1.65c-1.05,1.07-1.62,2.49-1.71,4.24
		h-2.56v-4.9c0-0.21-0.07-0.39-0.21-0.52c-0.13-0.14-0.31-0.21-0.52-0.21h-1.15c-0.21,0-0.38,0.07-0.52,0.21
		c-0.14,0.14-0.21,0.31-0.21,0.53v12.36c0,0.21,0.07,0.39,0.21,0.52c0.14,0.14,0.31,0.21,0.52,0.21h1.15c0.21,0,0.39-0.07,0.52-0.21
		c0.14-0.14,0.21-0.31,0.21-0.52v-5.19h2.56v0.13c0.07,1.82,0.64,3.29,1.69,4.39c1.05,1.1,2.57,1.65,4.51,1.65
		c1.94,0,3.46-0.56,4.51-1.65c1.05-1.1,1.62-2.58,1.69-4.38c0.04-0.38,0.05-0.77,0.05-1.13c0-0.37-0.02-0.74-0.05-1.13
		C580.52,185.54,579.94,184.06,578.87,182.96z M577.96,189.46L577.96,189.46c-0.05,1.29-0.4,2.28-1.02,2.96
		c-0.62,0.67-1.48,1.01-2.55,1.01c-1.07,0-1.93-0.34-2.55-1.01c-0.63-0.68-0.97-1.67-1.02-2.95l-0.03-0.99l0.03-0.99
		c0.05-1.28,0.4-2.28,1.02-2.95c0.62-0.68,1.48-1.02,2.55-1.02c1.07,0,1.93,0.34,2.55,1.02c0.63,0.67,0.97,1.67,1.02,2.96
		c0.02,0.18,0.02,0.53,0.02,0.98C577.98,188.93,577.98,189.28,577.96,189.46z"/>
	<path class="st0" d="M606.36,183.09c-0.94-1.18-2.35-1.78-4.21-1.78c-1.75,0-3.16,0.6-4.17,1.77v-0.78c0-0.22-0.06-0.41-0.2-0.53
		c-0.13-0.13-0.31-0.2-0.53-0.2h-1.09c-0.21,0-0.38,0.06-0.52,0.19c-0.14,0.13-0.21,0.31-0.21,0.54v17.31
		c0,0.23,0.07,0.41,0.21,0.54c0.14,0.13,0.31,0.2,0.52,0.2h1.17c0.2,0,0.38-0.07,0.52-0.21c0.14-0.14,0.21-0.31,0.21-0.52v-5.7
		c0.97,1.15,2.34,1.73,4.09,1.73c1.86,0,3.28-0.6,4.21-1.79c0.92-1.18,1.42-2.69,1.47-4.48c0.02-0.19,0.03-0.48,0.03-0.9
		c0-0.42-0.01-0.71-0.03-0.89C607.79,185.78,607.29,184.27,606.36,183.09z M605.2,189.22L605.2,189.22
		c-0.05,1.24-0.36,2.25-0.91,3.01c-0.55,0.74-1.44,1.12-2.64,1.12c-1.14,0-2.02-0.38-2.63-1.11c-0.61-0.75-0.94-1.65-0.97-2.68
		c-0.02-0.18-0.03-0.51-0.03-1c0-0.5,0.01-0.82,0.03-1.01c0.03-1.06,0.35-2,0.95-2.78c0.59-0.78,1.46-1.16,2.65-1.16
		c2.4,0,3.57,1.6,3.57,4.87C605.23,188.82,605.22,189.06,605.2,189.22z"/>
	<path class="st0" d="M638.84,186.24h-10.17c-0.21,0-0.39,0.07-0.52,0.21c-0.14,0.14-0.21,0.31-0.21,0.52v0.94
		c0,0.21,0.07,0.38,0.21,0.51c0.14,0.13,0.31,0.19,0.52,0.19h10.17c0.2,0,0.38-0.06,0.52-0.19c0.14-0.13,0.21-0.3,0.21-0.51v-0.94
		c0-0.21-0.07-0.38-0.21-0.52C639.23,186.31,639.05,186.24,638.84,186.24z"/>
	<path class="st0" d="M671.28,181.57h-10.27c-0.21,0-0.39,0.07-0.52,0.21c-0.14,0.14-0.21,0.31-0.21,0.53v12.36
		c0,0.21,0.07,0.39,0.21,0.52c0.14,0.14,0.31,0.21,0.53,0.21h1.15c0.21,0,0.39-0.07,0.52-0.21c0.14-0.14,0.21-0.31,0.21-0.52v-10.82
		h6.52v10.82c0,0.21,0.07,0.39,0.21,0.52c0.14,0.14,0.31,0.21,0.53,0.21h1.15c0.21,0,0.38-0.07,0.51-0.21
		c0.13-0.14,0.19-0.31,0.19-0.52V182.3c0-0.21-0.06-0.38-0.19-0.52C671.66,181.64,671.49,181.57,671.28,181.57z"/>
	<path class="st0" d="M692.4,181.31c-1.8,0-3.26,0.57-4.35,1.71c-1.08,1.13-1.68,2.67-1.78,4.57l-0.03,0.87l0.03,0.89
		c0.11,1.93,0.71,3.48,1.78,4.6c1.08,1.13,2.54,1.7,4.35,1.7c1.13,0,2.15-0.2,3.01-0.6c0.88-0.4,1.56-0.88,2.04-1.43
		c0.49-0.57,0.74-1.05,0.74-1.47c0-0.18-0.07-0.33-0.22-0.45c-0.14-0.1-0.3-0.15-0.48-0.15h-1.15c-0.23,0-0.39,0.03-0.5,0.08
		c-0.11,0.05-0.24,0.18-0.42,0.42c-0.25,0.33-0.63,0.66-1.12,0.97c-0.49,0.31-1.14,0.46-1.93,0.46c-1.01,0-1.84-0.39-2.45-1.15
		c-0.62-0.77-0.96-1.72-1.02-2.81v-0.1h8.92c0.21,0,0.39-0.07,0.52-0.21c0.14-0.13,0.21-0.31,0.21-0.52v-0.47
		c0-2.11-0.54-3.8-1.61-5.04C695.87,181.94,694.34,181.31,692.4,181.31z M688.91,187.38c0.01-1.16,0.32-2.11,0.93-2.84
		c0.61-0.73,1.48-1.1,2.56-1.1c1.08,0,1.92,0.36,2.56,1.1c0.63,0.73,0.95,1.68,0.96,2.84H688.91z"/>
	<path class="st0" d="M725.54,193.07h-1.1V182.3c0-0.23-0.07-0.41-0.19-0.54c-0.13-0.13-0.31-0.2-0.54-0.2h-8.24
		c-0.21,0-0.39,0.07-0.52,0.21c-0.14,0.14-0.21,0.31-0.21,0.53v3.34c0,2.6-0.19,4.53-0.55,5.72c-0.36,1.15-0.87,1.73-1.53,1.73
		h-0.13c-0.21,0-0.38,0.07-0.52,0.21c-0.14,0.14-0.21,0.31-0.21,0.53v3.7c0,0.23,0.07,0.41,0.21,0.54c0.14,0.13,0.31,0.19,0.52,0.19
		h1.14c0.21,0,0.38-0.07,0.53-0.21c0.14-0.14,0.21-0.31,0.21-0.52v-2.14h9.28v2.14c0,0.21,0.06,0.38,0.19,0.52
		c0.13,0.14,0.3,0.21,0.51,0.21h1.15c0.23,0,0.41-0.06,0.53-0.19c0.13-0.13,0.2-0.31,0.2-0.54v-3.73c0-0.23-0.07-0.41-0.2-0.54
		C725.94,193.13,725.76,193.07,725.54,193.07z M721.84,193.07l-5.93,0.02c0.92-1.39,1.39-3.81,1.39-7.19v-2.06h4.54V193.07z"/>
	<path class="st0" d="M752.06,181.57h-1.09c-0.3,0-0.57,0.15-0.78,0.44l-7.06,9.44v-9.15c0-0.21-0.07-0.38-0.21-0.52
		c-0.14-0.13-0.31-0.21-0.52-0.21h-1.15c-0.21,0-0.39,0.07-0.52,0.21c-0.14,0.14-0.21,0.31-0.21,0.52v12.41
		c0,0.17,0.07,0.33,0.21,0.47c0.14,0.14,0.29,0.21,0.47,0.21h1.12c0.3,0,0.57-0.15,0.78-0.44l7.07-9.44v9.15
		c0,0.21,0.07,0.38,0.21,0.52c0.14,0.14,0.31,0.21,0.52,0.21h1.15c0.21,0,0.38-0.07,0.52-0.21c0.14-0.14,0.21-0.31,0.21-0.52v-12.44
		c0-0.18-0.08-0.33-0.22-0.46C752.39,181.63,752.23,181.57,752.06,181.57z"/>
	<path class="st0" d="M775.14,188.19l3.86-5.69l0.02-0.04c0.02-0.04,0.04-0.09,0.06-0.14c0.05-0.08,0.07-0.15,0.07-0.21
		c0-0.16-0.07-0.3-0.21-0.4c-0.13-0.09-0.29-0.14-0.47-0.14h-1.28c-0.32,0-0.59,0.15-0.79,0.45l-3.53,5.19h-2.23v-4.9
		c0-0.22-0.06-0.41-0.19-0.53c-0.13-0.13-0.31-0.2-0.54-0.2h-1.12c-0.21,0-0.39,0.07-0.52,0.21c-0.14,0.14-0.21,0.31-0.21,0.52
		v12.36c0,0.21,0.07,0.39,0.21,0.52c0.14,0.14,0.31,0.21,0.52,0.21h1.12c0.21,0,0.38-0.07,0.52-0.21c0.14-0.13,0.21-0.31,0.21-0.52
		v-5.14h2.28l3.8,5.43c0.23,0.29,0.51,0.44,0.81,0.44h1.49c0.54,0,0.62-0.34,0.62-0.55c0-0.12-0.04-0.26-0.13-0.41L775.14,188.19z"
		/>
	<path class="st0" d="M809.56,182.96c-1.07-1.1-2.58-1.65-4.49-1.65c-1.91,0-3.42,0.56-4.49,1.65c-1.05,1.07-1.62,2.49-1.71,4.24
		h-2.56v-4.9c0-0.21-0.07-0.39-0.21-0.52c-0.14-0.14-0.31-0.21-0.53-0.21h-1.15c-0.21,0-0.39,0.07-0.52,0.21
		c-0.13,0.14-0.21,0.31-0.21,0.53v12.36c0,0.21,0.07,0.39,0.21,0.52c0.14,0.14,0.31,0.21,0.53,0.21h1.15c0.21,0,0.39-0.07,0.52-0.21
		c0.14-0.14,0.21-0.31,0.21-0.52v-5.19h2.56v0.13c0.07,1.82,0.64,3.29,1.69,4.39c1.06,1.1,2.57,1.65,4.51,1.65
		c1.94,0,3.46-0.56,4.51-1.65c1.05-1.1,1.62-2.58,1.69-4.38c0.04-0.38,0.05-0.77,0.05-1.13c0-0.37-0.02-0.74-0.05-1.13
		C811.21,185.54,810.63,184.06,809.56,182.96z M808.65,189.46L808.65,189.46c-0.05,1.29-0.4,2.28-1.02,2.96
		c-0.62,0.67-1.48,1.01-2.55,1.01c-1.07,0-1.93-0.34-2.55-1.01c-0.63-0.68-0.97-1.67-1.03-2.95l-0.03-0.99l0.03-0.99
		c0.05-1.28,0.4-2.28,1.03-2.95c0.62-0.68,1.48-1.02,2.55-1.02s1.93,0.34,2.55,1.02c0.63,0.67,0.97,1.67,1.02,2.96
		c0.01,0.18,0.02,0.53,0.02,0.98C808.67,188.93,808.66,189.28,808.65,189.46z"/>
	<path class="st0" d="M837.05,183.09c-0.93-1.18-2.35-1.78-4.21-1.78c-1.75,0-3.16,0.6-4.17,1.77v-0.78c0-0.22-0.06-0.41-0.19-0.53
		c-0.13-0.13-0.31-0.2-0.53-0.2h-1.1c-0.21,0-0.38,0.06-0.52,0.19c-0.14,0.13-0.21,0.31-0.21,0.54v17.31c0,0.23,0.07,0.41,0.21,0.54
		c0.14,0.13,0.31,0.2,0.52,0.2h1.18c0.21,0,0.38-0.07,0.52-0.21c0.13-0.14,0.21-0.31,0.21-0.52v-5.7c0.97,1.15,2.34,1.73,4.09,1.73
		c1.86,0,3.28-0.6,4.21-1.79c0.93-1.18,1.42-2.69,1.48-4.48c0.02-0.19,0.03-0.48,0.03-0.9c0-0.42-0.01-0.7-0.03-0.89
		C838.48,185.78,837.98,184.27,837.05,183.09z M835.89,189.22L835.89,189.22c-0.05,1.24-0.36,2.25-0.91,3.01
		c-0.55,0.74-1.43,1.12-2.63,1.12c-1.14,0-2.02-0.38-2.62-1.11c-0.61-0.75-0.94-1.65-0.97-2.68c-0.02-0.18-0.03-0.51-0.03-1
		c0-0.5,0.01-0.82,0.03-1.01c0.04-1.06,0.36-2,0.95-2.78c0.59-0.78,1.46-1.16,2.65-1.16c2.4,0,3.57,1.6,3.57,4.87
		C835.92,188.82,835.91,189.06,835.89,189.22z"/>
	<path class="st0" d="M466.27,149.16v-37.15c0-6.43-3.93-10.91-12.03-13.67c-5.29-1.83-11.03-2.71-17.55-2.71
		c-20.79,0-31.55,6.05-32.81,18.47H414c0.8-3.11,2.11-5.64,4-7.69l0.11-0.11c3.5-3.08,8.93-4.64,16.17-4.64
		c14.02,0,21.13,3.98,21.13,11.85c0,5.49-3.03,8.62-8.76,9.07l-22.99,2.22c-16.24,1.61-24.14,7.76-24.14,18.81
		c0,4.96,2.23,8.95,6.8,12.19c4.56,3.16,10.59,4.76,17.94,4.76c11.55,0,21.43-3.39,29.35-10.08l2.2-1.86l0.17,2.88
		c0.15,2.72,0.91,4.65,2.3,5.89c4.23,3.76,11.79,2.7,17.29,1.73v-4.99c-1.35,0.27-2.45,0.39-3.39,0.39
		C468.42,154.51,466.27,152.56,466.27,149.16z M455.04,138.02c0,4.62-2.87,8.61-8.53,11.85l-0.02,0.01
		c-5.69,3.12-11.81,4.63-18.71,4.63c-13.78,0-16.67-6.85-16.67-12.59c0-6.68,6.5-10.66,19.33-11.83c17.59-1.73,21.62-3.42,22.43-3.9
		l2.17-1.27V138.02z"/>
	<path class="st0" d="M635.67,137.37c0-6.23-2.76-11.61-8.21-16c-6.15-5.11-15.05-7.69-26.46-7.69c-8.17,0-17.56,2.89-20.93,6.45
		l0.63-0.6c0,0-1.69,1.43-3.12,2.95V96.36h-10.9v37.66c0,8.46,2.85,15.4,8.03,19.55c6.5,5.04,15.1,7.49,26.29,7.49
		c11.34,0,20.25-2.52,26.47-7.49C632.91,149.18,635.67,143.73,635.67,137.37z M619.58,149.13c-3.98,4.59-10.06,6.83-18.59,6.83
		c-8.18,0-14.2-2.23-18.39-6.81c-3.04-3.48-4.47-7.45-4.27-11.83c0.39-12.79,11.66-18.51,22.66-18.51c8.23,0,14.48,2.29,18.57,6.81
		c2.91,3.52,4.3,7.35,4.3,11.75C623.87,142,622.46,145.85,619.58,149.13z"/>
	<path class="st0" d="M838.06,128.41l-1.8-1.21l1.81-1.2c2.54-1.68,4.1-3.18,6.07-5.07c0.57-0.55,1.17-1.12,1.84-1.75l23.4-22.72
		h-14.09l-21.36,21.72c-2.72,2.75-6.19,6.18-10.37,5.95l-6.45,0V96.47h-10.86v62.42h10.86v-28.78h6.53c3.99,0,7.23,3.06,9.84,5.52
		l0.73,0.68l22.03,22.58h14.28l-24.67-23.82C842.89,132.17,841.28,130.57,838.06,128.41z"/>
	<polygon class="st0" points="516.53,96.48 485.64,158.89 498,158.89 523.19,106.22 547.25,158.89 559.62,158.89 529.93,96.48 	"/>
	<path class="st0" d="M934.47,96.36v34.82c0,6.06-1.77,11.23-5.27,15.36c-4.44,5.25-11.07,7.91-19.71,7.91
		c-11.79,0-17.77-5.34-17.77-15.87V96.36h-11.55v45.84c0,6.68,2.75,11.55,8.4,14.89c4.66,2.68,10.52,3.98,17.88,3.98
		c11.56,0,20.01-3.6,25.83-11.02c1.57-2.01,2.47-3.71,2.81-4.39v13.5H946V96.36H934.47z"/>
	<path class="st0" d="M697.6,115.06c0,6.06-1.77,11.23-5.27,15.36c-4.44,5.25-11.07,7.91-19.71,7.91
		c-11.79,0-17.77-5.34-17.77-15.87v-26H643.3v29.6c0,6.68,2.75,11.55,8.4,14.89c4.66,2.68,10.52,3.98,17.88,3.98
		c11.56,0,20.01-3.6,25.83-11.02c1.56-2.01,2.47-3.71,2.8-4.39v29.35h10.93V96.47H697.6V115.06z"/>
	<path class="st0" d="M779.63,131.18c0,6.06-1.78,11.23-5.28,15.36c-4.44,5.25-11.07,7.91-19.71,7.91
		c-11.8,0-17.77-5.34-17.77-15.87V96.36h-11.55v45.84c0,6.68,2.75,11.55,8.4,14.89c4.66,2.68,10.52,3.98,17.88,3.98
		c11.56,0,20.01-3.6,25.83-11.02c1.57-2.01,2.47-3.71,2.81-4.39v13.5h10.93V96.36h-11.53V131.18z"/>
	<path class="st0" d="M379.43,99.31c-4.66-2.68-10.52-3.98-17.88-3.98c-11.56,0-20.01,3.61-25.83,11.02
		c-1.56,2.01-2.47,3.71-2.8,4.39v-13.5h-10.93v61.67h11.54v-33.68c0-6.06,1.77-11.23,5.27-15.36c4.44-5.25,11.08-7.91,19.71-7.91
		c11.79,0,17.77,5.34,17.77,15.87v41.08h11.55V114.2C387.84,107.52,385.09,102.65,379.43,99.31z"/>
	<path class="st0" d="M144.15,240.09c-56.61,0-103.77-41.11-113.26-95.04H21.3c9.6,59.16,61.02,104.48,122.85,104.48
		S257.41,204.21,267,145.04h-9.59C247.92,198.97,200.76,240.09,144.15,240.09z"/>
	<path class="st0" d="M144.15,10.01c56.62,0,103.79,41.13,113.27,95.08h9.59C257.43,45.91,205.99,0.57,144.15,0.57
		S30.88,45.91,21.29,105.09h9.59C40.36,51.15,87.53,10.01,144.15,10.01z"/>
	<path class="st0" d="M8.2,120.21c-0.85-0.77-1.99-1.15-3.42-1.15c-1.44,0-2.58,0.39-3.43,1.15c-0.85,0.77-1.29,1.87-1.33,3.31
		C0.01,123.84,0,124.3,0,124.92c0,0.61,0.01,1.07,0.02,1.38c0.04,1.48,0.48,2.58,1.3,3.33c0.82,0.75,1.98,1.12,3.47,1.12
		c1.47,0,2.62-0.37,3.45-1.12c0.83-0.75,1.26-1.85,1.31-3.33c0.02-0.63,0.03-1.09,0.03-1.38c0-0.3-0.01-0.77-0.03-1.4
		C9.49,122.08,9.05,120.98,8.2,120.21z M7.18,126.22c-0.03,0.9-0.26,1.57-0.68,2c-0.42,0.43-1,0.65-1.72,0.65
		c-0.73,0-1.31-0.22-1.73-0.66c-0.42-0.44-0.65-1.1-0.67-1.99c-0.01-0.32-0.02-0.76-0.02-1.32c0-0.56,0.01-1,0.02-1.31
		c0.02-0.89,0.25-1.55,0.68-1.99c0.43-0.44,1.01-0.66,1.73-0.66c0.7,0,1.27,0.22,1.7,0.66c0.43,0.44,0.66,1.1,0.7,1.99
		c0.02,0.63,0.03,1.07,0.03,1.31C7.21,125.13,7.2,125.57,7.18,126.22z"/>
	<path class="st0" d="M24.1,130.26c0.72-0.33,1.27-0.78,1.67-1.36c0.4-0.57,0.61-1.22,0.63-1.93c0.01-0.1-0.02-0.18-0.09-0.24
		c-0.07-0.07-0.16-0.1-0.25-0.1h-1.57c-0.13,0-0.23,0.03-0.29,0.09c-0.06,0.06-0.12,0.16-0.16,0.31c-0.16,0.67-0.45,1.14-0.85,1.42
		c-0.41,0.28-0.93,0.41-1.59,0.41c-1.55,0-2.35-0.87-2.42-2.6c-0.01-0.31-0.01-0.77-0.01-1.38c0-0.61,0-1.06,0.01-1.35
		c0.07-1.73,0.87-2.6,2.42-2.6c0.66,0,1.19,0.14,1.59,0.41c0.4,0.28,0.68,0.75,0.85,1.42c0.04,0.15,0.1,0.26,0.16,0.32
		c0.06,0.06,0.16,0.09,0.29,0.09h1.57c0.09,0,0.17-0.03,0.24-0.09c0.07-0.06,0.11-0.13,0.11-0.22v-0.03
		c-0.02-0.71-0.23-1.36-0.63-1.93c-0.39-0.57-0.95-1.02-1.67-1.35c-0.71-0.33-1.55-0.5-2.52-0.5c-1.48,0-2.63,0.39-3.46,1.16
		c-0.82,0.77-1.26,1.85-1.31,3.24c-0.01,0.3-0.02,0.79-0.02,1.46c0,0.66,0,1.14,0.02,1.43c0.05,1.41,0.49,2.5,1.31,3.26
		c0.82,0.76,1.97,1.15,3.47,1.15C22.55,130.75,23.39,130.59,24.1,130.26z"/>
	<path class="st0" d="M41,130.48c0.08,0.07,0.17,0.12,0.28,0.12h1.51c0.12,0,0.21-0.04,0.28-0.12c0.07-0.07,0.11-0.17,0.11-0.28
		v-10.58c0-0.12-0.04-0.22-0.11-0.29c-0.07-0.08-0.16-0.11-0.28-0.11h-1.51c-0.11,0-0.2,0.04-0.28,0.11
		c-0.07,0.08-0.11,0.17-0.11,0.29v4.18h-4.74v-4.18c0-0.12-0.04-0.22-0.11-0.29c-0.08-0.08-0.17-0.11-0.29-0.11h-1.49
		c-0.12,0-0.22,0.04-0.29,0.11c-0.07,0.08-0.11,0.17-0.11,0.29v10.58c0,0.11,0.04,0.2,0.11,0.28c0.08,0.07,0.17,0.12,0.28,0.12h1.49
		c0.12,0,0.22-0.04,0.29-0.12c0.08-0.07,0.11-0.17,0.11-0.28v-4.34h4.74v4.34C40.89,130.31,40.93,130.4,41,130.48z"/>
	<path class="st0" d="M48.98,128.17c-0.11,0-0.2,0.04-0.28,0.11c-0.08,0.08-0.11,0.17-0.11,0.28v1.64c0,0.11,0.04,0.2,0.11,0.28
		c0.07,0.07,0.17,0.12,0.28,0.12h1.64c0.12,0,0.21-0.04,0.28-0.12c0.07-0.07,0.11-0.17,0.11-0.28v-1.64c0-0.11-0.04-0.2-0.11-0.28
		c-0.08-0.08-0.17-0.11-0.28-0.11H48.98z"/>
	<path class="st0" d="M241.53,124.59c-0.42,0.38-1.01,0.88-1.78,1.49l-2.53,2.52c-0.27,0.2-0.41,0.46-0.41,0.76v0.84
		c0,0.11,0.04,0.2,0.11,0.28c0.08,0.08,0.17,0.12,0.28,0.12h7.78c0.12,0,0.22-0.04,0.29-0.11c0.07-0.07,0.11-0.16,0.11-0.29v-1.17
		c0-0.12-0.04-0.21-0.11-0.29c-0.07-0.07-0.17-0.12-0.29-0.12h-4.6l2.26-2.29c0.86-0.67,1.49-1.3,1.9-1.89
		c0.41-0.59,0.61-1.25,0.61-1.97c0-0.66-0.15-1.25-0.45-1.77c-0.3-0.52-0.76-0.93-1.37-1.23c-0.61-0.3-1.34-0.45-2.21-0.45
		c-0.84,0-1.56,0.17-2.18,0.51c-0.62,0.34-1.09,0.79-1.42,1.35c-0.33,0.56-0.51,1.16-0.53,1.8c0,0.1,0.04,0.18,0.1,0.24
		c0.07,0.07,0.15,0.1,0.24,0.1h1.46c0.11,0,0.21-0.03,0.3-0.09c0.09-0.06,0.15-0.15,0.19-0.28c0.08-0.51,0.27-0.92,0.58-1.24
		c0.31-0.32,0.73-0.48,1.28-0.48c0.55,0,0.96,0.14,1.23,0.44c0.27,0.29,0.41,0.69,0.41,1.2c0,0.31-0.11,0.63-0.31,0.96
		C242.26,123.85,241.95,124.2,241.53,124.59z"/>
	<path class="st0" d="M254.91,119.06c-1.43,0-2.51,0.4-3.23,1.2c-0.73,0.8-1.11,1.84-1.17,3.12c-0.01,0.3-0.02,0.81-0.02,1.53
		c0,0.7,0.01,1.2,0.02,1.49c0.06,1.3,0.45,2.35,1.16,3.15c0.71,0.8,1.79,1.21,3.24,1.21c1.45,0,2.53-0.4,3.24-1.21
		c0.71-0.8,1.09-1.85,1.16-3.15c0.02-0.58,0.03-1.08,0.03-1.49c0-0.41-0.01-0.92-0.03-1.53c-0.06-1.28-0.45-2.32-1.17-3.12
		C257.42,119.46,256.34,119.06,254.91,119.06z M256.96,126.32c-0.02,0.81-0.2,1.44-0.54,1.88c-0.34,0.44-0.84,0.66-1.51,0.66
		c-0.67,0-1.18-0.22-1.51-0.66c-0.33-0.44-0.51-1.07-0.53-1.88c-0.01-0.32-0.02-0.8-0.02-1.45c0-0.65,0-1.12,0.02-1.41
		c0.02-0.79,0.2-1.41,0.53-1.85c0.34-0.44,0.84-0.67,1.51-0.68c0.67,0.01,1.17,0.24,1.51,0.68c0.34,0.45,0.51,1.06,0.54,1.85
		c0.01,0.29,0.01,0.76,0.01,1.41C256.97,125.52,256.97,126,256.96,126.32z"/>
	<path class="st0" d="M272.26,120.26c-0.72-0.8-1.8-1.2-3.23-1.2c-1.43,0-2.51,0.4-3.23,1.2c-0.73,0.8-1.11,1.84-1.17,3.12
		c-0.01,0.3-0.02,0.81-0.02,1.53c0,0.7,0.01,1.2,0.02,1.49c0.06,1.3,0.45,2.35,1.16,3.15c0.71,0.8,1.79,1.21,3.24,1.21
		c1.45,0,2.53-0.4,3.24-1.21c0.71-0.8,1.09-1.85,1.16-3.15c0.02-0.58,0.03-1.08,0.03-1.49c0-0.41-0.01-0.92-0.03-1.53
		C273.38,122.1,272.99,121.06,272.26,120.26z M271.07,126.32c-0.02,0.81-0.2,1.44-0.54,1.88c-0.34,0.44-0.84,0.66-1.51,0.66
		c-0.67,0-1.18-0.22-1.51-0.66c-0.34-0.44-0.51-1.07-0.53-1.88c-0.01-0.32-0.02-0.8-0.02-1.45c0-0.65,0-1.12,0.02-1.41
		c0.02-0.79,0.2-1.41,0.53-1.85c0.34-0.44,0.84-0.67,1.51-0.68c0.67,0.01,1.17,0.24,1.51,0.68c0.34,0.45,0.51,1.06,0.54,1.85
		c0.01,0.29,0.01,0.76,0.01,1.41C271.09,125.52,271.08,126,271.07,126.32z"/>
	<path class="st0" d="M285.81,119.22h-7.15c-0.12,0-0.21,0.04-0.29,0.11c-0.07,0.08-0.1,0.17-0.1,0.29v1.15
		c0,0.11,0.04,0.2,0.11,0.28c0.08,0.08,0.17,0.11,0.28,0.11h5.09l-3.9,8.92c-0.02,0.07-0.03,0.12-0.03,0.15
		c0,0.1,0.03,0.18,0.1,0.25c0.06,0.07,0.15,0.11,0.24,0.11h1.51c0.13,0,0.23-0.04,0.31-0.11c0.07-0.07,0.15-0.16,0.21-0.28
		l3.86-8.85c0.11-0.24,0.16-0.47,0.16-0.7v-1.02c0-0.12-0.04-0.22-0.11-0.29C286.02,119.26,285.93,119.22,285.81,119.22z"/>
	<path class="st0" d="M78.96,56.81V196.4l4.7,0.02c1.7,0.01,35.23-0.13,62.49-21.84c26.88,21.39,59.82,21.84,62.4,21.84h0.09
		l4.7-0.02v-80.12c0-32.79-26.68-59.47-59.47-59.47H78.96z M146.14,161.95c-3.95-3.84-7.64-8.27-10.9-13.37
		c-4.72-7.4-7.87-14.28-7.87-23.82c0-10.35,8.42-18.77,18.77-18.77c10.35,0,18.77,8.42,18.77,18.77h0c0,9.55-3.14,16.43-7.86,23.82
		C153.79,153.68,150.1,158.11,146.14,161.95z M203.9,116.28v70.45c-9.48-0.82-31.6-4.25-50.53-18.58
		c4.19-4.18,8.12-8.98,11.64-14.49c4.86-7.6,9.35-16.37,9.35-28.9h-0.01c0-15.55-12.65-28.21-28.2-28.21
		c-15.56,0-28.21,12.65-28.21,28.21c0,12.53,4.49,21.29,9.35,28.9c3.52,5.5,7.45,10.3,11.63,14.48
		C120,182.42,97.88,185.88,88.4,186.71V66.25h65.47C181.45,66.25,203.9,88.69,203.9,116.28z"/>
</g>
</svg>
